<svg xmlns="http://www.w3.org/2000/svg" viewBox="0 0 64 64" role="img" aria-labelledby="title desc">
  <title id="title">Tap icon</title>
  <desc id="desc">A chrome tap over a soft cloud and glowing tunnel.</desc>
  <defs>
    <linearGradient id="bg" x1="8" x2="56" y1="7" y2="58" gradientUnits="userSpaceOnUse">
      <stop offset="0" stop-color="#FFFFFF"/>
      <stop offset=".5" stop-color="#F4ECFF"/>
      <stop offset="1" stop-color="#D7CCFF"/>
    </linearGradient>
    <linearGradient id="tunnel" x1="8" x2="56" y1="34" y2="34" gradientUnits="userSpaceOnUse">
      <stop offset="0" stop-color="#2DD4BF"/>
      <stop offset=".46" stop-color="#2563EB"/>
      <stop offset="1" stop-color="#7B2FF7"/>
    </linearGradient>
    <linearGradient id="metal" x1="20" x2="45" y1="16" y2="51" gradientUnits="userSpaceOnUse">
      <stop offset="0" stop-color="#FFFFFF"/>
      <stop offset=".44" stop-color="#C8C0EC"/>
      <stop offset="1" stop-color="#5C4AA5"/>
    </linearGradient>
    <filter id="shadow" x="-30%" y="-30%" width="160%" height="160%">
      <feDropShadow dx="0" dy="4" stdDeviation="4" flood-color="#3A0CA3" flood-opacity=".24"/>
    </filter>
  </defs>
  <rect width="64" height="64" rx="16" fill="url(#bg)"/>
  <path d="M14 32c0-6 5-11 11-11 2-8 10-13 19-10 7 2 11 8 11 15 4 2 6 5 6 10 0 6-5 10-11 10H17C9 46 4 41 4 34c0-7 5-12 10-12Z" fill="#FFFFFF" opacity=".86"/>
  <path d="M8 35c10-9 18-9 26 0s15 9 22 0" fill="none" stroke="url(#tunnel)" stroke-linecap="round" stroke-width="10" opacity=".24"/>
  <path d="M8 35c10-9 18-9 26 0s15 9 22 0" fill="none" stroke="url(#tunnel)" stroke-linecap="round" stroke-width="5.2"/>
  <g filter="url(#shadow)">
    <path d="M29 16h7v11h-7z" fill="url(#metal)"/>
    <rect x="21" y="14" width="23" height="8" rx="4" fill="url(#metal)"/>
    <circle cx="21" cy="18" r="4.3" fill="#F3EFFF"/>
    <circle cx="44" cy="18" r="4.3" fill="#F3EFFF"/>
    <path d="M23 28h19a6 6 0 0 1 6 6v1a6 6 0 0 1-6 6h-6v8a4 4 0 0 1-8 0v-8h-5a6 6 0 0 1-6-6v-1a6 6 0 0 1 6-6z" fill="url(#metal)"/>
    <path d="M36 41c8 2 12 6 12 13" fill="none" stroke="#2DD4BF" stroke-linecap="round" stroke-width="5"/>
    <path d="M36 41c8 2 12 6 12 13" fill="none" stroke="#FFFFFF" stroke-linecap="round" stroke-width="1.7" opacity=".85"/>
  </g>
  <circle cx="52" cy="55" r="3.2" fill="#F38020"/>
</svg>
